<svg xmlns="http://www.w3.org/2000/svg" xmlns:xlink="http://www.w3.org/1999/xlink" width="131" height="227" viewBox="0 0 131 227">
  <defs>
    <style>
      .cls-1 {
        clip-path: url(#clip-Man);
      }

      .cls-2, .cls-4, .cls-5, .cls-9 {
        fill: #fff;
      }

      .cls-2, .cls-3, .cls-4, .cls-5, .cls-6 {
        stroke: #000;
      }

      .cls-2 {
        stroke-width: 3px;
      }

      .cls-3, .cls-6, .cls-8 {
        fill: none;
      }

      .cls-3, .cls-6 {
        stroke-linecap: round;
      }

      .cls-3 {
        stroke-width: 3.5px;
      }

      .cls-4 {
        stroke-width: 4px;
      }

      .cls-5, .cls-6 {
        stroke-width: 2px;
      }

      .cls-7 {
        stroke: none;
      }
    </style>
    <clipPath id="clip-Man">
      <rect width="131" height="227"/>
    </clipPath>
  </defs>
  <g id="Man" class="cls-1">
    <rect class="cls-9" width="131" height="227"/>
    <g id="Platform" transform="translate(2 2)">
      <g id="Rectangle_1" data-name="Rectangle 1" class="cls-2" transform="translate(16)">
        <rect class="cls-7" width="8" height="222"/>
        <rect class="cls-8" x="1.5" y="1.5" width="5" height="219"/>
      </g>
      <g id="Rectangle_2" data-name="Rectangle 2" class="cls-2" transform="translate(127) rotate(90)">
        <rect class="cls-7" width="8" height="111"/>
        <rect class="cls-8" x="1.5" y="1.5" width="5" height="108"/>
      </g>
      <g id="Rectangle_4" data-name="Rectangle 4" class="cls-2" transform="translate(70.749 0.594) rotate(45)">
        <rect class="cls-7" width="8" height="78"/>
        <rect class="cls-8" x="1.5" y="1.5" width="5" height="75"/>
      </g>
      <g id="Rectangle_3" data-name="Rectangle 3" class="cls-2" transform="translate(127 214) rotate(90)">
        <rect class="cls-7" width="8" height="127"/>
        <rect class="cls-8" x="1.5" y="1.5" width="5" height="124"/>
      </g>
    </g>
    <g id="Rope" transform="translate(82 9)">
      <rect id="Rectangle_5" data-name="Rectangle 5" width="4" height="58"/>
    </g>
    <g id="Body" transform="translate(66 66)">
      <g id="Torso" transform="translate(18.5 36.5)">
        <line id="Line_1" data-name="Line 1" class="cls-3" y2="41"/>
      </g>
      <g id="Arms" transform="translate(1.579 36)">
        <path id="Path_1" data-name="Path 1" class="cls-3" d="M756,463s-6.725,15.33-16.421,18.562" transform="translate(-739.579 -463)"/>
        <path id="Path_2" data-name="Path 2" class="cls-3" d="M739.579,463S746.3,478.33,756,481.562" transform="translate(-721.579 -463)"/>
      </g>
      <g id="Legs" transform="translate(1.579 78)">
        <path id="Path_3" data-name="Path 3" class="cls-3" d="M756,463s-6.725,23.128-16.421,28" transform="translate(-739.579 -463)"/>
        <path id="Path_4" data-name="Path 4" class="cls-3" d="M739.579,463S746.3,486.128,756,491" transform="translate(-721.579 -463)"/>
      </g>
      <g id="Face">
        <g id="Group_1" data-name="Group 1" transform="translate(-66 -66)">
          <g id="Ellipse_1" data-name="Ellipse 1" class="cls-4" transform="translate(66 66)">
            <circle class="cls-7" cx="18" cy="18" r="18"/>
            <circle class="cls-8" cx="18" cy="18" r="16"/>
          </g>
        </g>
        <g id="Ellipse_2" data-name="Ellipse 2" class="cls-5" transform="translate(11 11)">
          <circle class="cls-7" cx="2.5" cy="2.5" r="2.5"/>
          <circle class="cls-8" cx="2.5" cy="2.5" r="1.5"/>
        </g>
        <g id="Ellipse_3" data-name="Ellipse 3" class="cls-5" transform="translate(21 11)">
          <circle class="cls-7" cx="2.5" cy="2.5" r="2.5"/>
          <circle class="cls-8" cx="2.5" cy="2.5" r="1.5"/>
        </g>
        <path id="Path_5" data-name="Path 5" class="cls-6" d="M756.2,847.044a2.729,2.729,0,0,1,3.5-1.616,2.648,2.648,0,0,1,2.166,3.135" transform="matrix(0.966, -0.259, 0.259, 0.966, -934.99, -596.089)"/>
      </g>
    </g>
  </g>
</svg>
